<svg height="416" viewBox="0 0 335.72998 415.66602" width="336" xmlns="http://www.w3.org/2000/svg"><path d="m334.9799 240.56012c0 10.54-7.76 74.31-7.76 74.31l-26.71 16.23s5.65-42.35 7.77-64.7c2.12-22.36-2.68-66.32-45.73-72.42-38.86-5.5-57.94 18.88-64.11 38.45 4.11-25.41 24.06-56.8 66.66-56.8 65.3-0 69.88 58.03 69.88 64.93z" fill="#2768ab"/><path d="m262.5499 193.98012c43.05 6.1 47.85 50.06 45.73 72.42-2.12 22.35-7.77 64.7-7.77 64.7l-86.23-16.23c-5.93-20.7-13.02-52.39-15.53-62.47-1.37-5.5-1.53-12.47-.31-19.97 6.17-19.57 25.25-43.95 64.11-38.45z" fill="#1a4d81"/><path d="m300.51 331.8501a.77935.77935 0 0 1 -.13867-.0127l-86.23023-16.23a.75033.75033 0 0 1 -.58227-.53076c-4.37134-15.25928-9.3855-36.54053-12.70362-50.62256-1.21362-5.15088-2.17236-9.21972-2.833-11.873-1.43262-5.751-1.54419-12.76074-.32251-20.27148 1.36548-8.44238 5.66308-24.65039 19.10132-38.334 12.26879-12.49268 28.97021-19.09571 48.29882-19.09571 69.82251 0 70.63013 65.02344 70.63013 65.68018 0 10.46533-7.44849 71.79492-7.76538 74.40088a.75075.75075 0 0 1 -.35522.55029l-26.71 16.23a.74973.74973 0 0 1 -.38937.10886zm-85.63623-17.63135 85.49243 16.09131 26.15308-15.8916c.62817-5.186 7.71069-63.89356 7.71069-73.8584 0-.6416-.79053-64.18018-69.13013-64.18018-41.9497 0-61.72851 30.2583-65.91943 56.16992l-.00024.001c-1.17237 7.20654-1.06665 14.1919.2976 19.668.66285 2.66211 1.62256 6.73535 2.83765 11.8916 3.28248 13.9316 8.22682 34.91597 12.55836 50.10835z"/><path d="m300.51025 331.3501a.1921.1921 0 0 1 -.0332-.00244.24957.24957 0 0 1 -.21484-.28077c.05639-.42334 5.67358-42.60107 7.7688-64.69043.62915-6.63574 4.697-65.03369-45.51636-72.14892-36.53589-5.17041-56.93311 16.38281-63.83618 38.27783a.47912.47912 0 0 1 -.03492.10645.25009.25009 0 0 1 -.45727-.20118.77744.77744 0 0 1 .03-.09228c6.94971-22.0542 27.52-43.80078 64.36865-38.58594 18.991 2.69092 32.44824 12.87207 39.998 30.26074 7.38476 17.0083 6.61816 35.33887 5.94555 42.43018-2.09594 22.09961-7.71435 64.28613-7.77075 64.71a.25.25 0 0 1 -.24748.21676z"/><path d="m300.0799 182.95012a80.61236 80.61236 0 0 1 .43 8.39 68.42728 68.42728 0 0 1 -3.89 22.52c-7.03-9.89-17.83-17.58-34.07-19.88a75.85279 75.85279 0 0 0 -12.39-.77v-.22a34.45439 34.45439 0 0 0 -3.26-15.23 75.1047 75.1047 0 0 1 18.2-2.13c14.42-0 25.88 2.83 34.98 7.32z" fill="#62b57f"/><path d="m258.8299 135.01012c16.17 1.53 37.96 16.25 41.25 47.94-9.1-4.49-20.56-7.32-34.98-7.32a75.1047 75.1047 0 0 0 -18.2 2.13c-2.86-5.98-7.11-10.14-10.71-13.82a105.212 105.212 0 0 0 22.64-28.93z" fill="#cde8e3"/><path d="m296.6199 213.86012c-8.18 23.47-28.77 43.99-57.23 52.32-11.87-8.35-27.82-8.68-39.13-7.53-.61-2.53-1.12-4.66-1.51-6.25a46.2932 46.2932 0 0 1 -.97-14.39 44.18959 44.18959 0 0 0 11.44 1.33c13.85 0 40.81-14.52 40.94-46.13a75.85279 75.85279 0 0 1 12.39.77c16.24 2.3 27.04 9.99 34.07 19.88z" fill="#38798f"/><path d="m34.5699 269.60012c-11.21-5.76-21.86-14.82-28.11-29.04a40.44824 40.44824 0 0 0 18.76-34.16 40.36065 40.36065 0 0 0 -14.19-30.77c23.93-35.8 82.19-41.97 93.72-44.76 14.59-3.53 49.65-18.36 49.65-39.77s-6.12-28.47-6.12-49.88 19.76-40.47 44-40.47c27.53 0 77.41 28.47 77.41 86.59 0 19.4-4.24 34.92-10.86 47.67a26.593 26.593 0 0 0 -2.79-.14c-15.29 0-26.58 8.12-26.58 17.64 0 4.31 3.01 7.62 6.73 11.43-24.62 22.72-53.79 33.6-53.79 53.05 0 12.72 6.57 18.66 15.38 21.02a46.2932 46.2932 0 0 0 .97 14.39c.39 1.59.9 3.72 1.51 6.25-3.17.32-5.97.75-8.22 1.16-16.55 2.99-25.93-.05-30.77-4.43l-.03-.03c-4.78-5.47-5.81-11.06-6.5-14.05-1.7-7.3-.52-17.13 11.54-31.96-17.2 9.29-28.41 20.12-29.3 39-1.16 24.91 27.36 43.7 56.71 43.7a48.53511 48.53511 0 0 1 15.14 2.27c1.82 7.25 3.69 14.39 5.45 20.56l13.76 2.59c0 14.82-16.7 35.05-50.35 40.7s-39.76 12.47-39.76 20.47 6.35 9.65 6.35 17.88c0 8.24-10.12 17.65-25.41 17.65 11.1-3.84 14.64-8.7 14.64-13.81 0-7.3-13-9.48-13-24.31 0-26.58 57.65-36.23 57.65-50.11 0-2.94-1.76-8-10-8-9.18 0-18.12 13.64-49.76 13.64-61.89 0-83.83-46.17-83.83-61.97zm211.3-180.26c6.17-.71 13.59-4.06 13.59-9.88 0-5.83-10.06-20.12-19.42-20.12-5.11 0-8.11 8.82-8.11 18.53 0 9.7 7.76 12.17 13.94 11.47zm-9.89 32.65c0-6.24-3.2-11.3-7.14-11.3-3.95 0-7.15 5.06-7.15 11.3 0 6.23 3.2 11.29 7.15 11.29 3.94 0 7.14-5.06 7.14-11.29zm-16.32-31.33c1.5-7.67-3.26-26.73-15.44-26.73-7.24 0-17.47 13.41-17.47 27.17 0 13.77 14.82 10.59 18.35 10.59s13.06-3.35 14.56-11.03z" fill="#cde8e3"/><path d="m256.0399 134.87012a26.593 26.593 0 0 1 2.79.14 105.212 105.212 0 0 1 -22.64 28.93c-3.72-3.81-6.73-7.12-6.73-11.43-0-9.52 11.29-17.64 26.58-17.64z" fill="#82c8bd"/><ellipse cx="251.7199" cy="75.22012" fill="#f85750" rx="5.28" ry="7.13"/><path d="m259.4599 79.46012c0 5.82-7.42 9.17-13.59 9.88-6.18.7-13.94-1.77-13.94-11.47 0-9.71 3-18.53 8.11-18.53 9.36 0 19.42 14.29 19.42 20.12zm-2.46-4.24c0-3.94-2.36-7.13-5.28-7.13s-5.28 3.19-5.28 7.13 2.36 7.13 5.28 7.13 5.28-3.19 5.28-7.13z" fill="#334a5a"/><path d="m255.5699 304.10012a56.71039 56.71039 0 0 1 -2.78 18.02l-24.75-4.66c0-10.75-7.42-19.28-19.21-23.15-2.12-8.41-4.16-16.97-5.91-24.35q3.87.195 8.18.2a99.99135 99.99135 0 0 0 28.29-3.98c9.36 6.58 16.18 18.15 16.18 37.92z" fill="#38798f"/><path d="m228.0399 317.46012 24.75 4.66c-11.95 35.79-58.65 41.81-67.1 41.81-9.71 0-42.71 2.29-42.71 15.53 0 6.32 7.39 8.12 7.39 17.12s-13.44 21.58-31.5 17.58c15.29 0 25.41-9.41 25.41-17.65 0-8.23-6.35-9.88-6.35-17.88s6.11-14.82 39.76-20.47 50.35-25.88 50.35-40.7z" fill="#82c8bd"/><path d="m228.8399 110.69012c3.94 0 7.14 5.06 7.14 11.3 0 6.23-3.2 11.29-7.14 11.29-3.95 0-7.15-5.06-7.15-11.29 0-6.24 3.2-11.3 7.15-11.3z" fill="#334a5a"/><path d="m228.0399 317.46012-13.76-2.59c-1.76-6.17-3.63-13.31-5.45-20.56 11.79 3.87 19.21 12.4 19.21 23.15z" fill="#5499af"/><path d="m239.3899 266.18012a99.99135 99.99135 0 0 1 -28.29 3.98q-4.305 0-8.18-.2c-1-4.25-1.91-8.11-2.66-11.31 11.31-1.15 27.26-.82 39.13 7.53z" fill="#5499af"/><path d="m204.2199 63.93012c12.18 0 16.94 19.06 15.44 26.73-1.5 7.68-11.03 11.03-14.56 11.03s-18.35 3.18-18.35-10.59c0-13.76 10.23-27.17 17.47-27.17zm14.92 19.9c0-4.75-2.87-8.61-6.4-8.61-3.54 0-6.4 3.86-6.4 8.61 0 4.76 2.86 8.61 6.4 8.61 3.53 0 6.4-3.85 6.4-8.61z" fill="#334a5a"/><ellipse cx="212.7399" cy="83.83012" fill="#f85750" rx="6.4" ry="8.61"/><path d="m202.9199 269.96012c1.75 7.38 3.79 15.94 5.91 24.35a48.53511 48.53511 0 0 0 -15.14-2.27c-29.35 0-57.87-18.79-56.71-43.7.89-18.88 12.1-29.71 29.3-39-12.06 14.83-13.24 24.66-11.54 31.96.69 2.99 1.72 8.58 6.5 14.05l.03.03c5.94 6.78 17.66 13.37 41.65 14.58z" fill="#82c8bd"/><path d="m200.2599 258.65012c.75 3.2 1.66 7.06 2.66 11.31-23.99-1.21-35.71-7.8-41.65-14.58 4.84 4.38 14.22 7.42 30.77 4.43 2.25-.41 5.05-.84 8.22-1.16z" fill="#6caca1"/><path d="m11.0299 175.63012a40.36065 40.36065 0 0 1 14.19 30.77 40.44824 40.44824 0 0 1 -18.76 34.16c-3.57-8.11-5.71-17.89-5.71-29.69 0-14.16 3.93-25.74 10.28-35.24z" fill="#82c8bd"/><path d="m76.06934 227.3501a.74985.74985 0 0 1 -.67579-1.07422c3.39917-7.08643 8.41285-15.25977 12.98926-13.978 3.04492.86621 4.67163 5.22168 4.83692 12.94629a.74993.74993 0 1 1 -1.49952.03223c-.1455-6.79248-1.47583-10.88916-3.7456-11.53516-2.70068-.75683-6.90357 4.16748-11.22852 13.18311a.74961.74961 0 0 1 -.67675.42575z"/><path d="m76.0708 227.3501a.83079.83079 0 0 1 -.10376-.00684c-14.665-2.02832-24.90723-13.83545-24.90723-28.71338 0-18.23144 22.166-39.03271 53.90357-50.58447a.74986.74986 0 1 1 .51318 1.40918c-31.15674 11.34082-52.91675 31.5625-52.91675 49.17529 0 14.1084 9.71 25.30469 23.6128 27.227a.75013.75013 0 0 1 -.10181 1.49317z"/><path d="m211.09985 270.91016c-2.81152 0-5.57641-.06787-8.21777-.20118-20.25732-1.02148-34.44751-6.01269-42.17651-14.835a.75.75 0 0 1 1.12841-.98828c7.45118 8.50489 21.28736 13.32471 41.12378 14.3252 2.61646.13232 5.35572.19922 8.14209.19922a99.37973 99.37973 0 0 0 28.07813-3.94922c26.96045-7.8916 48.16894-27.27344 56.73364-51.84766a67.604 67.604 0 0 0 3.84839-22.273 80.30764 80.30764 0 0 0 -.426-8.312c-3.1289-30.13769-23.22607-45.62988-40.5747-47.27148a25.70581 25.70581 0 0 0 -2.71949-.13672c-14.48413 0-25.82983 7.41894-25.82983 16.89013 0 3.92725 2.7 6.99659 6.51465 10.90381l.00146.00147.58228.59424c3.5188 3.58789 7.50732 7.65429 10.26807 13.42675a35.14345 35.14345 0 0 1 3.33349 15.55371v.21985c-.12842 31.21533-26.79687 46.88037-41.68994 46.88037a44.99571 44.99571 0 0 1 -11.636-1.356c-10.57251-2.83252-15.93408-10.14844-15.93408-21.74415 0-13.24169 12.71314-22.33154 28.80835-33.83935 7.74658-5.53906 16.50318-11.79981 24.656-19.2417-3.77857-3.90674-6.4043-7.10547-6.4043-11.39893 0-10.312 12.00464-18.39013 27.32983-18.39013a27.24627 27.24627 0 0 1 2.86866.144c17.93017 1.69629 38.70141 17.63184 41.91748 48.6084a81.81624 81.81624 0 0 1 .43408 8.46777 69.10739 69.10739 0 0 1 -3.93188 22.7666c-8.72388 25.03077-30.30445 44.76661-57.72754 52.793a100.86667 100.86667 0 0 1 -28.50075 4.01028zm25.0625-105.92676c-8.22876 7.5166-17.03906 13.81592-24.83154 19.38769-15.74487 11.25733-28.18091 20.14891-28.18091 32.61914 0 10.98438 4.84888 17.62305 14.824 20.29541a43.51808 43.51808 0 0 0 11.2461 1.30469c14.35693 0 40.06567-15.16553 40.18994-45.3833v-.2168a33.68063 33.68063 0 0 0 -3.186-14.90527c-2.65381-5.54883-6.54956-9.52051-9.98658-13.0249z"/><path d="m236.18994 164.18994a.2501.2501 0 0 1 -.16968-.43359c9.8479-9.09033 17.23633-18.53076 22.58765-28.86133a.25006.25006 0 1 1 .44385.23047c-5.37842 10.38232-12.801 19.86767-22.69214 28.998a.24914.24914 0 0 1 -.16968.06645z"/><path d="m76.75 280.32031c-3.832 0-23.89185-.48486-42.52271-10.05322-13.31079-6.83887-22.884-16.73242-28.45385-29.40527-3.83081-8.70215-5.77344-18.79297-5.77344-29.9917 0-13.32959 3.50122-25.32617 10.40625-35.65723 21.06592-31.51465 67.77222-40.12353 87.71655-43.79932 2.79688-.51562 5.00611-.92285 6.45093-1.27246 15.374-3.71972 49.07617-18.71435 49.07617-39.041a106.79256 106.79256 0 0 0 -3.04321-24.78272 108.04394 108.04394 0 0 1 -3.0769-25.09717c-0-22.34376 20.49292-41.22022 44.75-41.22022 28.05151 0 78.16015 29.186 78.16015 87.34033 0 18.126-3.58008 33.832-10.94458 48.01563a.75.75 0 1 1 -1.33105-.69141c7.251-13.96484 10.77563-29.44482 10.77563-47.32422 0-57.15527-49.14694-85.84033-76.66015-85.84033-23.44385 0-43.25 18.18945-43.25 39.72021a106.79458 106.79458 0 0 0 3.04321 24.78223 108.04913 108.04913 0 0 1 3.0769 25.09766c0 21.41894-33.83691 36.53467-50.22363 40.499-1.48486.35938-3.71191.77-6.53149 1.28955-19.75806 3.6416-66.02759 12.16992-86.74146 43.15821-6.73732 10.0796-10.15332 21.79591-10.15332 34.82326 0 10.98926 1.89966 20.877 5.64648 29.38769 5.428 12.3501 14.76978 21.99756 27.76612 28.6753 18.32373 9.41064 38.06592 9.8872 41.8374 9.8872 20.47876 0 50.77979-13.07226 50.77979-41.13037 0-11.09863-9.19922-17.00976-15.83985-17.00976-2.93994 0-6.31763 1.17871-10.229 2.54394-2.60572.90918-5.55933 1.93994-8.80664 2.76318a.75005.75005 0 0 1 -.36866-1.4541c3.1836-.80664 6.10425-1.82617 8.68116-2.72558 4.04-1.40967 7.529-2.62744 10.72314-2.62744 7.26953 0 17.33985 6.43261 17.33985 18.50976 0 29.08154-31.19605 42.63037-52.27979 42.63037z"/><path d="m239.38965 266.43018a.24879.24879 0 0 1 -.14356-.04541c-11.75171-8.26661-27.67407-8.63282-38.96069-7.48633-2.75659.27881-5.51562.668-8.20068 1.15771-17.92676 3.23926-26.74366-.65429-30.98267-4.49072l.13794-.21533.179-.17481-.179.17481.196-.15723c4.15747 3.76318 12.832 7.5752 30.55932 4.37109 2.69776-.49169 5.47-.88281 8.2395-1.16259 11.37207-1.15576 27.42139-.78125 39.29883 7.57422a.25.25 0 0 1 -.144.45459z"/><path d="m161.24023 256.1001a.74853.74853 0 0 1 -.56494-.25635 29.24462 29.24462 0 0 1 -6.5354-13.79932l-.13061-.57568c-2.25147-9.667 1.46264-20.02686 11.68872-32.60156a.74989.74989 0 1 1 1.16357.94629c-13.01928 16.00927-12.73633 25.54052-11.39111 31.31689l.13281.5835a27.8963 27.8963 0 0 0 6.20142 13.14258.75.75 0 0 1 -.56446 1.24365z"/><path d="m118.86987 414.41016a.25.25 0 1 1 0-.5c14.82715 0 25.15992-9.16993 25.15992-17.39991 0-4.06982-1.6106-6.54687-3.16822-8.94189-1.56421-2.40527-3.18164-4.89258-3.18164-8.93848 0-8.40674 6.79688-15.14648 39.96851-20.71631 32.56811-5.46826 50.14135-24.92382 50.14135-40.45361 0-10.43408-7.11694-18.99951-19.03784-22.9126a48.22493 48.22493 0 0 0 -15.062-2.25732c-17.92969 0-35.79223-7.04492-46.61719-18.38574-7.19433-7.53711-10.77075-16.38086-10.34253-25.57569.99366-21.07959 15.43506-31.64941 29.43067-39.20849a.25026.25026 0 0 1 .23779.44043c-19.66455 10.6206-28.38794 22.22168-29.16894 38.7915-.42163 9.05469 3.10693 17.771 10.20483 25.207 10.73364 11.24512 28.45752 18.231 46.25537 18.231a48.70731 48.70731 0 0 1 15.218 2.28271c12.13623 3.9834 19.38183 12.72657 19.38183 23.38721 0 15.73486-17.71948 35.43311-50.55834 40.94678-32.82544 5.51123-39.55152 12.07031-39.55152 20.22314 0 3.89746 1.50611 6.21387 3.10083 8.66553 1.59717 2.45654 3.249 4.99658 3.249 9.21484.00004 8.4663-10.53805 17.8999-25.65988 17.8999z"/><path d="m125.69434 415.666a32.29393 32.29393 0 0 1 -6.98658-.77344.75015.75015 0 0 1 .32422-1.46485 27.88221 27.88221 0 0 0 23.66846-5.07275c4.26807-3.42627 6.91943-7.938 6.91943-11.7749 0-4.63574-2.04394-7.21973-4.02026-9.71826-1.73291-2.19043-3.36963-4.25928-3.36963-7.40186 0-16.09375 43.02539-16.27978 43.46-16.27978 3.70484 0 17.52612-1.36426 31.94678-7.4253 12.27539-5.15918 28.21509-15.22363 34.44165-33.87207a56.25268 56.25268 0 0 0 2.74145-17.78271c0-17.356-5.33642-29.90772-15.86132-37.30615a.75021.75021 0 0 1 .86279-1.22754c10.94751 7.69629 16.49853 20.66064 16.49853 38.53369a57.74939 57.74939 0 0 1 -2.81836 18.25683c-11.73315 35.14063-56.47265 42.32325-67.81152 42.32325a121.5617 121.5617 0 0 0 -24.82446 2.78027c-7.81714 1.83984-17.1355 5.415-17.1355 11.99951 0 2.62109 1.41162 4.40527 3.0459 6.47119 2.03613 2.57422 4.344 5.4917 4.344 10.64893 0 4.28027-2.86645 9.24023-7.48047 12.94433a28.48948 28.48948 0 0 1 -17.94511 6.14161z"/><path d="m118.86987 414.91016a.75011.75011 0 0 1 -.24511-1.459c9.51147-3.29 14.13525-7.57568 14.13525-13.10107 0-2.6919-2.02075-4.64844-4.57935-7.125-3.75166-3.63183-8.42066-8.15185-8.42066-17.18509 0-15.89307 20.03931-25.92432 36.14111-33.98389 11.54126-5.77734 21.50879-10.7666 21.50879-16.126 0-1.21045-.446-7.25-9.25-7.25-3.02881 0-6.18823 1.65869-10.18847 3.75878-7.49561 3.93458-18.82325 9.88135-39.57154 9.88135-33.82763 0-54.37744-13.75049-65.65991-25.28564-12.42113-12.6996-18.92016-28.44476-18.92016-37.4345a.75.75 0 0 1 1.5 0c0 7.02588 4.92481 22.51367 18.49244 36.38574 11.081 11.3291 31.28149 24.83447 64.58764 24.83447 20.37866 0 31.06861-5.61181 38.87427-9.70947 4.18311-2.19629 7.48706-3.93066 10.88574-3.93066 7.93457 0 10.75 4.71337 10.75 8.75 0 6.28564-10.35156 11.46728-22.3374 17.46728-15.73267 7.875-35.3125 17.67578-35.3125 32.64258 0 8.39746 4.231 12.49365 7.96411 16.10742 2.70215 2.61572 5.03589 4.875 5.03589 8.20264 0 6.24414-4.95386 10.99365-15.145 14.519a.754.754 0 0 1 -.24514.04106z"/><path d="m6.46021 240.81006a.2501.2501 0 0 1 -.13453-.46094 40.0878 40.0878 0 0 0 18.64432-33.94922 40.15382 40.15382 0 0 0 -14.10254-30.58008.24987.24987 0 1 1 .32471-.37988 40.65207 40.65207 0 0 1 14.27783 30.95996 40.58543 40.58543 0 0 1 -18.87576 34.3711.24976.24976 0 0 1 -.13403.03906z"/><path d="m228.83984 133.78027c-4.21826 0-7.6499-5.28906-7.6499-11.79 0-6.50683 3.43164-11.80029 7.6499-11.80029 4.21289 0 7.64014 5.29346 7.64014 11.80029.00002 6.50094-3.42725 11.79-7.64014 11.79zm0-22.59033c-3.66674 0-6.6499 4.84522-6.6499 10.80029 0 5.94971 2.98316 10.79 6.6499 10.79 3.66138 0 6.64014-4.84033 6.64014-10.79.00002-5.95507-2.97876-10.80029-6.64014-10.80029z"/><path d="m199.22925 102.50488c-3.32276 0-7.21192-.52978-9.85987-2.97265-2.06982-1.90918-3.11938-4.7461-3.11938-8.43213 0-13.98975 10.28979-27.66992 17.97-27.66992 3.77441 0 7.103 1.71875 9.8938 5.10791 4.94409 6.00439 7.14966 16.52832 6.03686 22.21826-1.56884 8.03222-11.40258 11.43359-15.05078 11.43359-.42407 0-1.05078.05078-1.77661.10938-1.11917.09033-2.54519.20556-4.09402.20556zm4.99075-38.0747c-7.09668 0-16.97 13.43945-16.97 26.66992 0 3.39551.94116 5.98486 2.79761 7.69726 3.5603 3.28369 9.82837 2.77735 13.19507 2.50537.77807-.063 1.39282-.11279 1.85717-.11279 3.30323 0 12.63208-3.26709 14.06934-10.62549.92456-4.72754-.61865-15.06494-5.82739-21.39062-2.59156-3.14746-5.66065-4.74365-9.1218-4.74365z"/><path d="m243.87427 89.95459a13.22113 13.22113 0 0 1 -8.8689-3.02c-2.37256-2.11914-3.57544-5.16894-3.57544-9.06445 0-9.45655 2.95752-19.02979 8.60986-19.02979 9.501 0 19.92017 14.47363 19.92017 20.61963 0 6.01953-7.27417 9.59863-14.033 10.377a18.25849 18.25849 0 0 1 -2.05269.11761zm-3.83448-30.11426c-4.33837 0-7.60986 7.751-7.60986 18.02979 0 3.59863 1.09058 6.39746 3.24146 8.31836 2.40185 2.1455 6.09741 3.11523 10.14233 2.65478 6.53223-.752 13.14624-4.2168 13.14624-9.3833.00004-5.69287-10.09912-19.61963-18.92017-19.61963z"/><path d="m212.74 92.68994c-3.667 0-6.65015-3.97461-6.65015-8.85986s2.98316-8.85987 6.65015-8.85987c3.66675 0 6.6499 3.97461 6.6499 8.85987s-2.98316 8.85986-6.6499 8.85986zm0-17.21973c-3.39111 0-6.15015 3.75-6.15015 8.35987s2.759 8.35986 6.15015 8.35986 6.1499-3.75 6.1499-8.35986-2.7588-8.35987-6.1499-8.35987z"/><path d="m251.72 82.6001c-3.04932 0-5.53-3.31055-5.53-7.37989s2.48071-7.37988 5.53-7.37988 5.53 3.31055 5.53 7.37988-2.48071 7.37989-5.53 7.37989zm0-14.25977c-2.77368 0-5.03 3.08643-5.03 6.87988s2.25635 6.87989 5.03 6.87989 5.03-3.08643 5.03-6.87989-2.25635-6.87988-5.03-6.87988z"/><path d="m300.07959 183.2002a.24872.24872 0 0 1 -.11035-.02588c-9.80933-4.84034-21.541-7.29444-34.86939-7.29444a75.16352 75.16352 0 0 0 -18.1394 2.123.25011.25011 0 0 1 -.12109-.48535 75.67 75.67 0 0 1 18.26049-2.1377c13.40577 0 25.21192 2.47168 35.09058 7.34619a.24995.24995 0 0 1 -.11084.47413z"/><path d="m252.79 322.37012a.25069.25069 0 0 1 -.04639-.0044l-38.51-7.25a.2503.2503 0 0 1 -.19433-.17724c-1.59668-5.59717-3.43091-12.51709-5.45191-20.56739-2.11889-8.40576-4.16186-16.978-5.91064-24.35351l-.80347-3.41309c-.68506-2.91064-1.313-5.57763-1.85669-7.89746l-.49-2.03418c-.397-1.64892-.73926-3.07031-1.01953-4.21338a46.7287 46.7287 0 0 1 -.97656-14.46777.25.25 0 1 1 .49853.03711 46.22545 46.22545 0 0 0 .96363 14.31055c.28051 1.14453.623 2.56689 1.02 4.2163l.49023 2.03565c.54419 2.32129 1.17187 4.98828 1.85718 7.89892l.80322 3.4126c1.74829 7.373 3.791 15.94336 5.90894 24.34619 2.00195 7.97412 3.82031 14.83789 5.40551 20.40381l38.35816 7.22168a.25.25 0 0 1 -.0459.49561z"/><path d="m296.62012 214.11035a.25051.25051 0 0 1 -.2041-.105c-7.85425-11.0498-19.26026-17.7041-33.90137-19.77783a75.91425 75.91425 0 0 0 -12.34888-.76758.26393.26393 0 0 1 -.25586-.24414.25025.25025 0 0 1 .24414-.25586 76.5811 76.5811 0 0 1 12.43067.77246c14.78247 2.09375 26.302 8.8169 34.239 19.98291a.25031.25031 0 0 1 -.20361.395z"/></svg>