<svg id="e3adQZO6RHg1" xmlns="http://www.w3.org/2000/svg" xmlns:xlink="http://www.w3.org/1999/xlink" viewBox="0 0 1050 675" shape-rendering="geometricPrecision" text-rendering="geometricPrecision"><style><![CDATA[#e3adQZO6RHg2_to {animation: e3adQZO6RHg2_to__to 3000ms linear infinite alternate forwards}@keyframes e3adQZO6RHg2_to__to { 0% {transform: translate(566.619141px,367.104889px)} 23.333333% {transform: translate(521.000122px,371.705505px)} 53.333333% {transform: translate(554.309814px,356.675204px)} 93.333333% {transform: translate(542.671875px,371.705505px)} 100% {transform: translate(542.671875px,371.705505px)}} #e3adQZO6RHg14_to {animation: e3adQZO6RHg14_to__to 3000ms linear infinite alternate forwards}@keyframes e3adQZO6RHg14_to__to { 0% {transform: translate(402.243302px,338.703857px)} 6.666667% {transform: translate(402.243302px,338.703857px)} 40% {transform: translate(402.243302px,356.543732px)} 100% {transform: translate(402.243302px,356.543732px)}} #e3adQZO6RHg16_to {animation: e3adQZO6RHg16_to__to 3000ms linear infinite alternate forwards}@keyframes e3adQZO6RHg16_to__to { 0% {transform: translate(672.635041px,358.801666px)} 13.333333% {transform: translate(672.635041px,358.801666px)} 26.666667% {transform: translate(675.878418px,356.543839px)} 100% {transform: translate(675.878418px,372.759094px)}} #e3adQZO6RHg21_ts {animation: e3adQZO6RHg21_ts__ts 3000ms linear infinite alternate forwards}@keyframes e3adQZO6RHg21_ts__ts { 0% {transform: translate(542.802884px,497.53006px) scale(1.232533,1)} 16.666667% {transform: translate(542.802884px,497.53006px) scale(1.232533,1)} 40% {transform: translate(542.802884px,497.53006px) scale(1.766017,1)} 100% {transform: translate(542.802884px,497.53006px) scale(1.766017,1)}} #e3adQZO6RHg22_to {animation: e3adQZO6RHg22_to__to 3000ms linear infinite alternate forwards}@keyframes e3adQZO6RHg22_to__to { 0% {transform: translate(558.110825px,228.009537px)} 63.333333% {transform: translate(558.110825px,228.009537px)} 83.333333% {transform: translate(551.735092px,294.193649px)} 100% {transform: translate(551.735092px,294.193649px)}}]]></style><g id="e3adQZO6RHg2_to" transform="translate(566.619141,367.104889)"><g transform="scale(1.047219,1.018517) translate(-566.619141,-367.104889)" clip-path="url(#e3adQZO6RHg5)"><g><path d="M834.164062,323.101562c0,122.25-114.304687,257.574219-199.863281,310.851563-26.875,16.734375-48.492187,22.753906-67.683593,22.351563-6.300782-.125-15.148438.199218-19.007813.023437-3.863281-.175781-248.535156-186.871094-248.535156-333.226563c0-160.648437,119.785156-245.273437,267.542969-245.273437c147.761718-.003906,267.546874,84.621094,267.546874,245.273437Zm0,0" fill="#db23d2"/></g><clipPath id="e3adQZO6RHg5"><path d="M299,77h535.488281v580L299,657Zm0,0"/></clipPath></g></g><path d="M810.214844,316.148438c0,160.660156-197.410156,346.605468-267.542969,336.507812-70.128906-10.089844-267.542969-175.847656-267.542969-336.507812C275.128906,155.5,394.90625,70.875,542.671875,70.875c147.757813,0,267.542969,84.625,267.542969,245.273438Zm0,0" fill="#1cedf4"/><g clip-path="url(#e3adQZO6RHg11)"><g transform="translate(0 0.000001)"><path d="M548.429688,656.523438c-2.183594,0-4.257813-.140626-6.257813-.425782-75.769531-10.90625-270.519531-182.046875-270.519531-339.949218c0-151.105469,106.378906-248.75,271.019531-248.75c164.636719,0,271.019531,97.644531,271.019531,248.75c0,158.695312-188.296875,340.375-265.261718,340.375ZM542.671875,74.347656c-160.414063,0-264.070313,94.917969-264.070313,241.800782c0,162.269531,199.75,323.742187,264.566407,333.066406c1.679687.246094,3.425781.363281,5.265625.363281c72.960937,0,258.304687-181.601563,258.304687-333.425781c0-146.886719-103.652343-241.804688-264.066406-241.804688Zm0,0" transform="translate(0 0.000001)" fill="#db23d2"/></g><clipPath id="e3adQZO6RHg11"><path d="M271.324219,67.398438h542.675781L814,657h-542.675781Zm0,0"/></clipPath></g><path d="M329.050781,297.382812c-20.828125,26.40625-.261719,74.292969,45.953125,106.976563c46.199219,32.664063,100.542969,37.746094,121.367188,11.347656c20.828125-26.398437.261718-74.292969-45.9375-106.96875-46.203125-32.675781-100.550782-37.757812-121.382813-11.355469Zm0,0" transform="translate(-3.570739-4.666504)" fill="#681e68"/><g id="e3adQZO6RHg14_to" transform="translate(402.243302,338.703857)"><path d="M453.054688,365.066406c0,0-1.488282-1.101562-3.816407-3.222656-1.167969-1.054688-2.59375-2.335938-4.230469-3.804688-1.746093-1.144531-3.429687-2.46875-5.335937-3.839843-.921875-.679688-1.886719-1.390625-2.882813-2.125-1.132812-.679688-2.308593-1.378907-3.515624-2.089844-2.390626-1.449219-4.578126-3.285156-7.246094-4.6875-2.640625-1.398437-5.359375-2.84375-8.128906-4.308594-2.90625-1.449219-5.859376-2.921875-8.8125-4.40625-2.730469-1.144531-5.171876-2.488281-7.929688-3.695312-2.761719-1.222657-5.425781-2.71875-8.136719-3.597657-2.675781-1.066406-5.300781-1.976562-7.800781-2.683593-2.492188-.886719-4.855469-1.472657-7.054688-1.898438-4.371093-1.171875-8.058593-1.644531-10.605468-2.070312-2.59375-.367188-4.074219-.574219-4.074219-.574219l-3.292969-.46875c-5.25-.730469-8.902344-5.582031-8.160156-10.828125.636719-4.527344,4.351562-7.867187,8.722656-8.21875c0,0,2.066406-.171875,5.664063-.457031c1.8125-.21875,3.953125-.164063,6.394531-.0625c2.460938.039062,5.214844.171875,8.125.648437c2.953125.320313,6.105469.832031,9.328125,1.652344c3.300781.644531,6.640625,1.679687,10.0625,2.804687c3.496094.976563,6.839844,2.558594,10.34375,3.929688c3.484375,1.449219,7.035156,3.417969,10.558594,5.15625l4.523437,2.695312L427.988281,320.25l1.109375.664062.910156.585938.5625.414062c3.027344,2.203126,6,4.378907,8.878907,6.472657c2.875,2.125,5.304687,4.65625,7.777343,6.804687c1.214844,1.128906,2.386719,2.21875,3.527344,3.273438c1.097656,1.242187,2.15625,2.4375,3.164063,3.589844c1.980469,2.3125,3.800781,4.441406,5.40625,6.332031c1.199219,1.761719,2.242187,3.296875,3.101562,4.558593c1.714844,2.527344,2.699219,3.976563,2.699219,3.976563c2.191406,3.230469,1.351562,7.617187-1.882812,9.804687-2.546876,1.722657-5.8125,1.566407-8.160157-.164062Zm0,0" transform="translate(-409.140305,-334.940338)" fill="#51cfed"/></g><path d="M756.292969,297.382812c20.828125,26.40625.265625,74.292969-45.941407,106.976563-46.199218,32.664063-100.542968,37.746094-121.375,11.347656-20.828124-26.398437-.265624-74.292969,45.941407-106.96875c46.203125-32.675781,100.542969-37.757812,121.375-11.355469Zm0,0" fill="#681e68"/><g id="e3adQZO6RHg16_to" transform="translate(672.635041,358.801666)"><path d="M622.878906,360.453125c0,0,.476563-1.792969,1.589844-4.734375.542969-1.476562,1.203125-3.269531,1.960938-5.332031.984374-2.117188,2.53125-4.363281,4.054687-6.945313.800781-1.300781,1.640625-2.640625,2.511719-4.027344.9375-1.242187,1.914062-2.523437,2.914062-3.839843c2.152344-2.480469,4.351563-5.292969,6.957032-7.765625c2.664062-2.472656,5.40625-5.023438,8.203124-7.613282l.53125-.480468.132813-.125.070313-.058594.03125-.035156c-.355469.21875.523437-.328125.441406-.273438l.265625-.191406l1.066406-.746094l2.136719-1.507812l4.324218-3.019532c3.578126-1.878906,7.253907-3.964843,10.851563-5.402343c3.660156-1.257813,7.128906-2.722657,10.746094-3.582031c3.554687-.984376,6.980469-1.953126,10.402343-2.382813c3.335938-.617187,6.578126-.921875,9.601563-1.058594c2.96875-.320312,5.792969-.039062,8.277344.152344c2.464843.132813,4.601562.34375,6.394531.867187c3.511719.839844,5.515625,1.324219,5.515625,1.324219l.300781.074219c5.308594,1.269531,8.574219,6.597656,7.304688,11.90625-1.148438,4.769531-5.582032,7.890625-10.335938,7.535156c0,0-1.425781-.101562-3.929687-.28125-1.230469-.183594-2.804688-.125-4.628907-.035156-1.800781.019531-3.847656.09375-6.128906.488281-2.269531.246094-4.726562.625-7.324218,1.308594-2.625.480469-5.335938,1.339844-8.140626,2.261719-2.84375.761718-5.628906,2.128906-8.542968,3.242187-2.871094,1.195313-5.429688,2.667969-8.207032,3.949219l-4.484374,2.675781-2.234376,1.339844-1.113281.671875-.277343.160156c.59375-.367187.027343,0,.097656-.039062l-.476563.351562c-2.53125,1.855469-5.035156,3.679688-7.441406,5.4375-2.417969,1.765625-4.363281,3.875-6.425781,5.644532-1,.917968-1.972656,1.800781-2.914063,2.664062-.765625.886719-1.515625,1.742188-2.230469,2.5625-1.457031,1.640625-2.796874,3.136719-3.984374,4.464844-1.199219,1.765625-2.242188,3.304687-3.101563,4.570312-1.714844,2.527344-2.699219,3.976563-2.699219,3.976563-2.191406,3.230469-6.59375,4.070312-9.824218,1.882812-2.546876-1.730469-3.609376-4.828125-2.867188-7.648437Zm0,0" transform="translate(-675.878418,-336.446136)" fill="#51cfed"/></g><path d="M511.90625,447.1875c-1.164062,1.253906,2.867188,8.777344,7.589844,12.8125c2.183594,1.859375,5.746094,4.398438,8.660156,2.648438c4.34375-2.613282.507812-7.648438-2.058594-9.84375-4.71875-4.042969-12.417968-7.503907-14.191406-5.617188Zm0,0" fill="#681e68"/><path d="M572.527344,447.1875c1.167968,1.253906-2.867188,8.777344-7.589844,12.8125-2.179688,1.859375-5.742188,4.398438-8.660156,2.648438-4.34375-2.613282-.507813-7.648438,2.058594-9.84375c4.71875-4.042969,12.417968-7.503907,14.191406-5.617188Zm0,0" fill="#681e68"/><path d="M455.585938,533.042969c-11.320313,10.492187-40.054688-1.925781-64.179688-27.757813-24.128906-25.828125-50.851562-56.039062-53.640625-74.039062-2.789063-17.996094,70.503906,10.1875,94.625,36.007812c24.132813,25.832032,34.507813,55.285156,23.195313,65.789063Zm0,0" fill="#51cfed"/><path d="M634.277344,533.042969c11.328125,10.492187,40.058594-1.925781,64.183594-27.757813c24.125-25.828125,50.851562-56.039062,53.640624-74.039062c2.789063-17.996094-70.507812,10.1875-94.628906,36.007812-24.128906,25.832032-34.503906,55.285156-23.195312,65.789063Zm0,0" fill="#51cfed"/><g id="e3adQZO6RHg21_ts" transform="translate(542.802884,497.53006) scale(1.232533,1)"><path d="M543.140625,515.132812c-.15625,0-.3125,0-.46875,0-31.605469,0-54.34375-28.195312-55.292969-29.375-1.214844-1.492187-.984375-3.867187.503906-5.078124c1.488282-1.203126,3.671876-.753907,4.886719.730468.21875.261719,21.691407,26.652344,50.007813,26.652344.121094,0,.242187,0,.359375,0c16.671875,0,32.621093-9.226562,47.402343-26.789062c1.234376-1.480469,3.425782-1.832032,4.902344-.589844c1.464844,1.234375,1.652344,3.734375.417969,5.207031-16.167969,19.203125-33.902344,29.242187-52.71875,29.242187Zm0,0" transform="translate(-541.636917,-497.53006)" fill="#681e68"/></g><g id="e3adQZO6RHg22_to" transform="translate(558.110825,228.009537)"><path d="M473.261719,292.703125c4.65625,4.800781,9.203125,8.960937,12.503906,12.058594c15.011719,14.066406,41.726563,45.074219,63.828125,42.25c32.859375-4.199219,79.789062-55.214844,96.160156-75.371094c12.234375-15.066406-1.773437-24.835937-16.730468-24.390625-27.085938.8125-43.589844,19.886719-67.0625,28.753906-20.375,7.695313-38.988282-7.929687-55.988282-17.160156-10.394531-5.648438-40.453125-29.003906-50.53125-10.867188-7.925781,14.289063,5.332032,31.835938,17.820313,44.726563Zm0,0" transform="translate(-551.735092,-294.193649)" fill="#51cfed"/></g></svg>