<svg xmlns="http://www.w3.org/2000/svg" width="1050" viewBox="0 0 1050 675" height="675" version="1.0"><defs><clipPath id="a"><path d="M 299 77 L 834.488281 77 L 834.488281 657 L 299 657 Z M 299 77"/></clipPath><clipPath id="b"><path d="M 271.324219 67.398438 L 814 67.398438 L 814 657 L 271.324219 657 Z M 271.324219 67.398438"/></clipPath></defs><g clip-path="url(#a)"><path fill="#DB23D2" d="M 834.164062 323.101562 C 834.164062 445.351562 719.859375 580.675781 634.300781 633.953125 C 607.425781 650.6875 585.808594 656.707031 566.617188 656.304688 C 560.316406 656.179688 551.46875 656.503906 547.609375 656.328125 C 543.746094 656.152344 299.074219 469.457031 299.074219 323.101562 C 299.074219 162.453125 418.859375 77.828125 566.617188 77.828125 C 714.378906 77.824219 834.164062 162.449219 834.164062 323.101562 Z M 834.164062 323.101562"/></g><path fill="#1CEDF4" d="M 810.214844 316.148438 C 810.214844 476.808594 612.804688 662.753906 542.671875 652.65625 C 472.542969 642.566406 275.128906 476.808594 275.128906 316.148438 C 275.128906 155.5 394.90625 70.875 542.671875 70.875 C 690.429688 70.875 810.214844 155.5 810.214844 316.148438 Z M 810.214844 316.148438"/><g clip-path="url(#b)"><path fill="#DB23D2" d="M 548.429688 656.523438 C 546.246094 656.523438 544.171875 656.382812 542.171875 656.097656 C 466.402344 645.191406 271.652344 474.050781 271.652344 316.148438 C 271.652344 165.042969 378.03125 67.398438 542.671875 67.398438 C 707.308594 67.398438 813.691406 165.042969 813.691406 316.148438 C 813.691406 474.84375 625.394531 656.523438 548.429688 656.523438 Z M 542.671875 74.347656 C 382.257812 74.347656 278.601562 169.265625 278.601562 316.148438 C 278.601562 478.417969 478.351562 639.890625 543.167969 649.214844 C 544.847656 649.460938 546.59375 649.578125 548.433594 649.578125 C 621.394531 649.578125 806.738281 467.976562 806.738281 316.152344 C 806.738281 169.265625 703.085938 74.347656 542.671875 74.347656 Z M 542.671875 74.347656"/></g><path fill="#681E68" d="M 329.050781 297.382812 C 308.222656 323.789062 328.789062 371.675781 375.003906 404.359375 C 421.203125 437.023438 475.546875 442.105469 496.371094 415.707031 C 517.199219 389.308594 496.632812 341.414062 450.433594 308.738281 C 404.230469 276.0625 349.882812 270.980469 329.050781 297.382812 Z M 329.050781 297.382812"/><path fill="#51CFED" d="M 453.054688 365.066406 C 453.054688 365.066406 451.566406 363.964844 449.238281 361.84375 C 448.070312 360.789062 446.644531 359.507812 445.007812 358.039062 C 443.261719 356.894531 441.578125 355.570312 439.671875 354.199219 C 438.75 353.519531 437.785156 352.808594 436.789062 352.074219 C 435.65625 351.394531 434.480469 350.695312 433.273438 349.984375 C 430.882812 348.535156 428.695312 346.699219 426.027344 345.296875 C 423.386719 343.898438 420.667969 342.453125 417.898438 340.988281 C 414.992188 339.539062 412.039062 338.066406 409.085938 336.582031 C 406.355469 335.4375 403.914062 334.09375 401.15625 332.886719 C 398.394531 331.664062 395.730469 330.167969 393.019531 329.289062 C 390.34375 328.222656 387.71875 327.3125 385.21875 326.605469 C 382.726562 325.71875 380.363281 325.132812 378.164062 324.707031 C 373.792969 323.535156 370.105469 323.0625 367.558594 322.636719 C 364.964844 322.269531 363.484375 322.0625 363.484375 322.0625 L 360.191406 321.59375 C 354.941406 320.863281 351.289062 316.011719 352.03125 310.765625 C 352.667969 306.238281 356.382812 302.898438 360.753906 302.546875 C 360.753906 302.546875 362.820312 302.375 366.417969 302.089844 C 368.230469 301.871094 370.371094 301.925781 372.8125 302.027344 C 375.273438 302.066406 378.027344 302.199219 380.9375 302.675781 C 383.890625 302.996094 387.042969 303.507812 390.265625 304.328125 C 393.566406 304.972656 396.90625 306.007812 400.328125 307.132812 C 403.824219 308.109375 407.167969 309.691406 410.671875 311.0625 C 414.15625 312.511719 417.707031 314.480469 421.230469 316.21875 L 425.753906 318.914062 L 427.988281 320.25 L 429.097656 320.914062 L 430.007812 321.5 L 430.570312 321.914062 C 433.597656 324.117188 436.570312 326.292969 439.449219 328.386719 C 442.324219 330.511719 444.753906 333.042969 447.226562 335.191406 C 448.441406 336.320312 449.613281 337.410156 450.753906 338.464844 C 451.851562 339.707031 452.910156 340.902344 453.917969 342.054688 C 455.898438 344.367188 457.71875 346.496094 459.324219 348.386719 C 460.523438 350.148438 461.566406 351.683594 462.425781 352.945312 C 464.140625 355.472656 465.125 356.921875 465.125 356.921875 C 467.316406 360.152344 466.476562 364.539062 463.242188 366.726562 C 460.695312 368.449219 457.429688 368.292969 455.082031 366.5625 Z M 453.054688 365.066406"/><path fill="#681E68" d="M 756.292969 297.382812 C 777.121094 323.789062 756.558594 371.675781 710.351562 404.359375 C 664.152344 437.023438 609.808594 442.105469 588.976562 415.707031 C 568.148438 389.308594 588.710938 341.414062 634.917969 308.738281 C 681.121094 276.0625 735.460938 270.980469 756.292969 297.382812 Z M 756.292969 297.382812"/><path fill="#51CFED" d="M 622.878906 360.453125 C 622.878906 360.453125 623.355469 358.660156 624.46875 355.71875 C 625.011719 354.242188 625.671875 352.449219 626.429688 350.386719 C 627.414062 348.269531 628.960938 346.023438 630.484375 343.441406 C 631.285156 342.140625 632.125 340.800781 632.996094 339.414062 C 633.933594 338.171875 634.910156 336.890625 635.910156 335.574219 C 638.0625 333.09375 640.261719 330.28125 642.867188 327.808594 C 645.53125 325.335938 648.273438 322.785156 651.070312 320.195312 L 651.601562 319.714844 L 651.734375 319.589844 L 651.804688 319.53125 L 651.835938 319.496094 C 651.480469 319.714844 652.359375 319.167969 652.277344 319.222656 L 652.542969 319.03125 L 653.609375 318.285156 L 655.746094 316.777344 L 660.070312 313.757812 C 663.648438 311.878906 667.324219 309.792969 670.921875 308.355469 C 674.582031 307.097656 678.050781 305.632812 681.667969 304.773438 C 685.222656 303.789062 688.648438 302.820312 692.070312 302.390625 C 695.40625 301.773438 698.648438 301.46875 701.671875 301.332031 C 704.640625 301.011719 707.464844 301.292969 709.949219 301.484375 C 712.414062 301.617188 714.550781 301.828125 716.34375 302.351562 C 719.855469 303.191406 721.859375 303.675781 721.859375 303.675781 L 722.160156 303.75 C 727.46875 305.019531 730.734375 310.347656 729.464844 315.65625 C 728.316406 320.425781 723.882812 323.546875 719.128906 323.191406 C 719.128906 323.191406 717.703125 323.089844 715.199219 322.910156 C 713.96875 322.726562 712.394531 322.785156 710.570312 322.875 C 708.769531 322.894531 706.722656 322.96875 704.441406 323.363281 C 702.171875 323.609375 699.714844 323.988281 697.117188 324.671875 C 694.492188 325.152344 691.78125 326.011719 688.976562 326.933594 C 686.132812 327.695312 683.347656 329.0625 680.433594 330.175781 C 677.5625 331.371094 675.003906 332.84375 672.226562 334.125 L 667.742188 336.800781 L 665.507812 338.140625 L 664.394531 338.8125 L 664.117188 338.972656 C 664.710938 338.605469 664.144531 338.972656 664.214844 338.933594 L 663.738281 339.285156 C 661.207031 341.140625 658.703125 342.964844 656.296875 344.722656 C 653.878906 346.488281 651.933594 348.597656 649.871094 350.367188 C 648.871094 351.285156 647.898438 352.167969 646.957031 353.03125 C 646.191406 353.917969 645.441406 354.773438 644.726562 355.59375 C 643.269531 357.234375 641.929688 358.730469 640.742188 360.058594 C 639.542969 361.824219 638.5 363.363281 637.640625 364.628906 C 635.925781 367.15625 634.941406 368.605469 634.941406 368.605469 C 632.75 371.835938 628.347656 372.675781 625.117188 370.488281 C 622.570312 368.757812 621.507812 365.660156 622.25 362.839844 Z M 622.878906 360.453125"/><path fill="#681E68" d="M 511.90625 447.1875 C 510.742188 448.441406 514.773438 455.964844 519.496094 460 C 521.679688 461.859375 525.242188 464.398438 528.15625 462.648438 C 532.5 460.035156 528.664062 455 526.097656 452.804688 C 521.378906 448.761719 513.679688 445.300781 511.90625 447.1875 Z M 511.90625 447.1875"/><path fill="#681E68" d="M 572.527344 447.1875 C 573.695312 448.441406 569.660156 455.964844 564.9375 460 C 562.757812 461.859375 559.195312 464.398438 556.277344 462.648438 C 551.933594 460.035156 555.769531 455 558.335938 452.804688 C 563.054688 448.761719 570.753906 445.300781 572.527344 447.1875 Z M 572.527344 447.1875"/><path fill="#51CFED" d="M 455.585938 533.042969 C 444.265625 543.535156 415.53125 531.117188 391.40625 505.285156 C 367.277344 479.457031 340.554688 449.246094 337.765625 431.246094 C 334.976562 413.25 408.269531 441.433594 432.390625 467.253906 C 456.523438 493.085938 466.898438 522.539062 455.585938 533.042969 Z M 455.585938 533.042969"/><path fill="#51CFED" d="M 634.277344 533.042969 C 645.605469 543.535156 674.335938 531.117188 698.460938 505.285156 C 722.585938 479.457031 749.3125 449.246094 752.101562 431.246094 C 754.890625 413.25 681.59375 441.433594 657.472656 467.253906 C 633.34375 493.085938 622.96875 522.539062 634.277344 533.042969 Z M 634.277344 533.042969"/><path fill="#681E68" d="M 543.140625 515.132812 C 542.984375 515.132812 542.828125 515.132812 542.671875 515.132812 C 511.066406 515.132812 488.328125 486.9375 487.378906 485.757812 C 486.164062 484.265625 486.394531 481.890625 487.882812 480.679688 C 489.371094 479.476562 491.554688 479.925781 492.769531 481.410156 C 492.988281 481.671875 514.460938 508.0625 542.777344 508.0625 C 542.898438 508.0625 543.019531 508.0625 543.136719 508.0625 C 559.808594 508.0625 575.757812 498.835938 590.539062 481.273438 C 591.773438 479.792969 593.964844 479.441406 595.441406 480.683594 C 596.90625 481.917969 597.09375 484.417969 595.859375 485.890625 C 579.691406 505.09375 561.957031 515.132812 543.140625 515.132812 Z M 543.140625 515.132812"/><path fill="#51CFED" d="M 473.261719 292.703125 C 477.917969 297.503906 482.464844 301.664062 485.765625 304.761719 C 500.777344 318.828125 527.492188 349.835938 549.59375 347.011719 C 582.453125 342.8125 629.382812 291.796875 645.753906 271.640625 C 657.988281 256.574219 643.980469 246.804688 629.023438 247.25 C 601.9375 248.0625 585.433594 267.136719 561.960938 276.003906 C 541.585938 283.699219 522.972656 268.074219 505.972656 258.84375 C 495.578125 253.195312 465.519531 229.839844 455.441406 247.976562 C 447.515625 262.265625 460.773438 279.8125 473.261719 292.703125 Z M 473.261719 292.703125"/></svg>