<?xml version="1.0" encoding="UTF-8"?>
<svg xmlns="http://www.w3.org/2000/svg" xmlns:xlink="http://www.w3.org/1999/xlink" viewBox="0 0 48 48" width="48px" height="48px">
<g id="surface18552372">
<path style=" stroke:none;fill-rule:nonzero;fill:rgb(80.000001%,80.000001%,80.000001%);fill-opacity:1;" d="M 24 48 C 10.746094 48 0 37.253906 0 24 C 0 10.746094 10.746094 0 24 0 C 37.253906 0 48 10.746094 48 24 C 48 37.253906 37.253906 48 24 48 Z M 24 48 "/>
<path style=" stroke:none;fill-rule:nonzero;fill:rgb(12.941177%,58.823532%,95.294118%);fill-opacity:1;" d="M 29.160156 38.820312 L 31.578125 36.402344 L 19.179688 24 L 31.578125 11.597656 L 29.160156 9.179688 L 14.421875 24 Z M 29.160156 38.820312 "/>
<path style=" stroke:none;fill-rule:nonzero;fill:rgb(26.274511%,62.7451%,27.843139%);fill-opacity:1;" d="M 48 38 C 48 43.5 43.5 48 38 48 C 32.5 48 28 43.5 28 38 C 28 32.5 32.5 28 38 28 C 43.5 28 48 32.5 48 38 "/>
<path style=" stroke:none;fill-rule:nonzero;fill:rgb(100%,100%,100%);fill-opacity:1;" d="M 44 36 L 40 36 L 40 32 L 36 32 L 36 36 L 32 36 L 32 40 L 36 40 L 36 44 L 40 44 L 40 40 L 44 40 Z M 44 36 "/>
<path style=" stroke:none;fill-rule:nonzero;fill:rgb(80.000001%,80.000001%,80.000001%);fill-opacity:1;" d="M 27.683594 19.238281 L 27.683594 20.273438 L 24.621094 20.273438 L 24.621094 28.761719 L 23.371094 28.761719 L 23.371094 20.273438 L 20.316406 20.273438 L 20.316406 19.238281 Z M 27.683594 19.238281 "/>
</g>
</svg>
