<?xml version="1.0" encoding="UTF-8"?>
<svg xmlns="http://www.w3.org/2000/svg" xmlns:xlink="http://www.w3.org/1999/xlink" viewBox="0 0 48 48" width="48px" height="48px">
<g id="surface15602196">
<path style=" stroke:none;fill-rule:nonzero;fill:rgb(20%,20%,20%);fill-opacity:1;" d="M 37.117188 22.671875 L 32.589844 10 L 15.410156 10 L 10.882812 22.671875 L 7.117188 21.328125 L 12.117188 7.328125 C 12.402344 6.53125 13.15625 6 14 6 L 34 6 C 34.84375 6 35.597656 6.53125 35.882812 7.328125 L 40.882812 21.328125 Z M 37.117188 22.671875 "/>
<path style=" stroke:none;fill-rule:nonzero;fill:rgb(10.196079%,73.725492%,61.176473%);fill-opacity:1;" d="M 37.398438 43 L 10.601562 43 C 9.601562 43 8.800781 42.300781 8.601562 41.398438 L 5 23 L 43 23 L 39.300781 41.398438 C 39.101562 42.300781 38.300781 43 37.398438 43 Z M 37.398438 43 "/>
<path style=" stroke:none;fill-rule:nonzero;fill:rgb(40.000001%,73.333335%,41.568628%);fill-opacity:1;" d="M 43 25 L 5 25 C 3.898438 25 3 24.101562 3 23 L 3 21 C 3 19.898438 3.898438 19 5 19 L 43 19 C 44.101562 19 45 19.898438 45 21 L 45 23 C 45 24.101562 44.101562 25 43 25 Z M 43 25 "/>
<path style=" stroke:none;fill-rule:nonzero;fill:rgb(10.588235%,36.862746%,12.54902%);fill-opacity:1;" d="M 24 28 C 23.449219 28 23 28.449219 23 29 L 23 39 C 23 39.601562 23.398438 40 24 40 C 24.601562 40 25 39.601562 25 39 L 25 29 C 25 28.449219 24.550781 28 24 28 Z M 28 28 C 27.449219 28 27 28.449219 27 29 L 27 39 C 27 39.601562 27.398438 40 28 40 C 28.601562 40 29 39.601562 29 39 L 29 29 C 29 28.449219 28.550781 28 28 28 Z M 32 28 C 31.449219 28 31 28.449219 31 29 L 31 39 C 31 39.601562 31.398438 40 32 40 C 32.601562 40 33 39.601562 33 39 L 33 29 C 33 28.449219 32.550781 28 32 28 Z M 16 28 C 15.449219 28 15 28.449219 15 29 L 15 39 C 15 39.601562 15.398438 40 16 40 C 16.601562 40 17 39.601562 17 39 L 17 29 C 17 28.449219 16.550781 28 16 28 Z M 20 28 C 19.449219 28 19 28.449219 19 29 L 19 39 C 19 39.601562 19.398438 40 20 40 C 20.601562 40 21 39.601562 21 39 L 21 29 C 21 28.449219 20.550781 28 20 28 Z M 20 28 "/>
<path style=" stroke:none;fill-rule:nonzero;fill:rgb(40.000001%,73.333335%,41.568628%);fill-opacity:1;" d="M 29 11 L 19 11 C 18.449219 11 18 10.550781 18 10 L 18 6 C 18 5.449219 18.449219 5 19 5 L 29 5 C 29.550781 5 30 5.449219 30 6 L 30 10 C 30 10.550781 29.550781 11 29 11 Z M 29 11 "/>
</g>
</svg>
