<svg enable-background="new 0 0 2523.167 1600" height="295" preserveAspectRatio="none" viewBox="0 0 2523.167 1600" width="2523.167" xmlns="http://www.w3.org/2000/svg"><path d="m2150.164 1599.522c.517-11.167 1.003-19.522 1.003-19.522s-124-277-174-392-230-455-319-636-354-552-397-552c-51 0-269 359-394 585s-176 359-176 359l-19 528s108.052 72.555 193.815 127.522z" fill="#00aee0"/><path d="m1536.374 1599.522h150.847c121.886-81.367 284.762-249.317 340.81-295.435-19.671-44.414-37.823-85.602-50.907-115.696-50-115-230-455-319-636s-354-552-397-552c-2.08 0-4.442.607-7.059 1.768 27.733 158.323 130.285 752.458 144.102 958.841 14.839 221.663 75.268 508.693 138.207 638.522z" fill="#04294f"/><path d="m1088.167 491c31 38 2 176 63 143s106-35 133-14 38 120 78 103 43-89 90-79 58 2 79-47 31-45 71-47c12.193-.61 30.239-4.386 48.645-12.135-95.349-185.555-347.809-537.474-389.689-537.474-46.125 0-228.847 293.644-355.829 516.971 16.614 1.8 36.648-.224 60.873-5.363 66-13.999 91-58.999 122-20.999z" fill="#fff"/><path d="m1650.882 538.061c-95.348-185.555-347.808-537.474-389.688-537.474-2.066 0-4.411.599-7.008 1.745 20.129 114.916 79.39 457.813 115.805 716.609 32.861-22.276 38.48-84.056 82.246-74.745 47 10 58 2 79-47s31-45 71-47c12.193-.61 30.24-4.386 48.645-12.135z" fill="#00aee0"/><path d="m1083.015 1599.522c-18.19-17.369-35.982-37.463-51.849-60.522-75-109-190-346-244-487s-211-477-263-467-216 326-310 481-188 439-209 516l-5.166 17.522z" fill="#00aee0"/><path d="m603.167 1160c-4 249-14 312 34 432 1.101 2.753 3.041 5.116 4.891 7.522h441.241c-18.259-17.409-36.122-37.553-52.046-60.696-75-109-190-346-244-487-51.689-134.965-197.746-448.582-255.758-466.41 27.719 108.423 75.078 362.535 71.672 574.584z" fill="#04294f"/><path d="m381.167 850c45 24 50 79 92 96s40 10 77-16c54.025-37.964 61-47 94-26 25.004 15.911 57.46 10.575 79.121-2.077-68.784-150.157-161.438-324.205-199.078-316.966-32.028 6.159-106.543 128.402-181.022 257.611 11.631-1.414 24.345.161 37.979 7.432z" fill="#fff"/><path d="m723.303 902.39c-64.552-140.919-150.126-302.876-191.523-316.288 16.92 66.453 41.004 186.463 56.464 317.933 22.54-14.245 32.897-14.23 55.938.432 25.004 15.911 57.461 10.575 79.121-2.077z" fill="#00aee0"/><path d="m2493.147 1599.522c-6.348-41.469-27.673-134.116-63.98-278.522-44-175-321-530-358-602s-72-86-105-40-182 355-219 447c-32.254 80.199-135.931 392.636-162 474z" fill="#00aee0"/><path d="m2151.841 1599.522h371.326c-27-136.522-82.033-259.511-89-280.522-64-193-325.826-528.087-362.826-600.087-25.861-50.324-50.744-72.305-74.651-65.278 28.331 74.584 78.722 261.707 111.478 452.365 28.194 164.112 44.238 373.734 43.673 493.522z" fill="#04294f"/><path d="m2071.341 718.913c-37-72-72-86-105-40-29.133 40.61-148.677 286.202-201.749 406.497 14.215 11.576 30.263 20.314 46.575 19.589 45-2 61.837-48.761 110-35 49 14 25.76 108.359 116 110 55 1 84-11 104-62s28-85 85-95c16.545-2.903 29.869-7.663 40.476-12.952-85.435-130.954-175.331-252.271-195.302-291.134z" fill="#fff"/><path d="m2071.064 718.87c-15.534-30.229-30.716-50.229-45.545-59.862-.301-.19-.603-.387-.903-.569-.118-.073-.236-.146-.354-.218-9.219-5.459-18.302-6.893-27.248-4.263 28.331 74.584 78.722 261.707 111.478 452.365 2.858 16.633 5.59 33.734 8.193 51.161 9.555-9.346 17.401-22.178 24.205-39.526 20-51 28-85 85-95 16.545-2.903 29.869-7.663 40.476-12.952-85.435-130.957-175.33-252.273-195.302-291.136z" fill="#00aee0"/></svg>