<svg fill="#000000" xmlns="http://www.w3.org/2000/svg"  viewBox="0 0 24 24" width="24px" height="24px"><path d="M21.8564453,1L12,1.0009766L2.1435547,1C0.9619141,1,0,1.9677734,0,3.1582031	c0,0.3251953,0.0742188,0.640625,0.2197266,0.9375C1.8173828,7.375,4.4970703,12.0253906,6.8613281,16.1289063	c1.2353516,2.1445313,2.4023438,4.1699219,3.2460938,5.7089844C10.5068359,22.5654297,11.2138672,23,12.0009766,23	c0.7861328,0,1.4931641-0.4345703,1.8925781-1.1621094c0.8427734-1.5380859,2.0087891-3.5625,3.2431641-5.7050781	c2.3652344-4.1044922,5.0449219-8.7568359,6.6435547-12.0351563C23.9257813,3.7998047,24,3.4833984,24,3.1582031	C24,1.9677734,23.0380859,1,21.8564453,1z"/></svg>